# xmcd
# 
# Track frame offsets:
#	150
#	9727
#	22597
#	33167
#	42877
#	54612
#	65135
#	75827
#	86642
#	95487
#	107367
#	119710
#	130865
#	142195
#	157070
#	169062
#	180457
#	190660
#	201917
#	213790
#	227632
#	241497
#	254222
#	265737
#	278182
#	290185
#	301905
#
# Disc length: 4138 seconds
#
# Revision: 1
# Processed by: cddbd v1.5.1PL0 Copyright (c) Steve Scherf et al.
# Submitted via: Audio-CD-Archiv 3.00.486
#
DISCID=8110281b
DTITLE=Johnson, Marv - Marvelous M.J./More M.J. (1959-1960)
DYEAR=1900
DGENRE=blues
TTITLE0=September In The Rain
TTITLE1=You've Got What It Takes
TTITLE2=Summertime
TTITLE3=S'Wonderful
TTITLE4=I Can't Get Started
TTITLE5=Come To Me
TTITLE6=Let Me Love You
TTITLE7=Almost Like Being In Love
TTITLE8=Love Is Here To Stay
TTITLE9=I'm Coming Home
TTITLE10=When I Fall In Love
TTITLE11=Don't Leave Me
TTITLE12=Baby, Baby
TTITLE13=This Heart Of Mine (Will Surely Sing)
TTITLE14=I Love The Way You Love Me
TTITLE15=River Of Tears
TTITLE16=Clap Your Hands
TTITLE17=Ain't Gonna Be That Way
TTITLE18=When You've Lost Your Love
TTITLE19=I Need You
TTITLE20=Easier Said (Than Done)
TTITLE21=What A Need
TTITLE22=All The Love I've Got
TTITLE23=(You've Got To) Move Two Mountains (Bonustrack)
TTITLE24=Happy Days (Bonustrack)
TTITLE25=Merry-Go-Round (Bonustrack)
TTITLE26=Sweet Georgia Brown (Bonustrack)
EXTD=
EXTT0=
EXTT1=
EXTT2=
EXTT3=
EXTT4=
EXTT5=
EXTT6=
EXTT7=
EXTT8=
EXTT9=
EXTT10=
EXTT11=
EXTT12=
EXTT13=
EXTT14=
EXTT15=
EXTT16=
EXTT17=
EXTT18=
EXTT19=
EXTT20=
EXTT21=
EXTT22=
EXTT23=
EXTT24=
EXTT25=
EXTT26=
PLAYORDER=
